<?xml version="1.0" standalone="no"?>
<!DOCTYPE svg PUBLIC "-//W3C//DTD SVG 20010904//EN"
 "http://www.w3.org/TR/2001/REC-SVG-20010904/DTD/svg10.dtd">
<svg version="1.0" xmlns="http://www.w3.org/2000/svg"
 width="1024.000000pt" height="1024.000000pt" viewBox="0 0 1024.000000 1024.000000"
 preserveAspectRatio="xMidYMid meet">
<metadata>
Created by potrace 1.14, written by Peter Selinger 2001-2017
</metadata>
<g transform="translate(0.000000,1024.000000) scale(0.100000,-0.100000)"
fill="#000000" stroke="none">
<path d="M2760 9448 c-66 -84 -133 -169 -149 -188 -16 -19 -75 -93 -130 -165
l-102 -130 650 -3 c358 -1 944 -1 1302 0 l651 3 -221 280 c-121 154 -235 297
-251 318 l-31 37 -799 0 -799 0 -121 -152z"/>
<path d="M2414 8533 c168 -250 423 -629 429 -639 4 -8 -32 -24 -106 -48 -158
-51 -270 -98 -437 -183 -304 -155 -500 -297 -755 -548 -349 -343 -589 -726
-748 -1195 -25 -74 -49 -150 -52 -169 -3 -19 -8 -38 -10 -42 -5 -6 -38 -163
-50 -229 -11 -65 -27 -183 -33 -255 -14 -157 -5 -592 13 -648 2 -7 6 -35 9
-64 3 -28 8 -57 10 -65 3 -7 7 -32 10 -55 16 -130 134 -518 195 -641 4 -9 39
-80 77 -157 77 -156 179 -322 287 -465 39 -52 74 -97 77 -100 3 -3 34 -38 70
-79 544 -622 1328 -995 2154 -1027 l149 -6 -20 33 c-80 132 -192 359 -251 509
-28 70 -110 317 -117 350 -2 8 -9 36 -15 62 -13 50 -19 54 -110 72 -106 21
-301 92 -435 159 -636 318 -1074 947 -1143 1642 -13 137 -6 472 12 526 3 7 7
33 10 57 3 24 11 62 17 85 6 23 12 49 14 57 31 160 161 454 278 631 246 369
613 661 1017 810 254 93 468 128 750 123 170 -2 195 -4 310 -24 285 -48 550
-153 797 -315 63 -42 120 -80 126 -85 7 -6 32 -27 57 -48 113 -93 246 -237
350 -377 126 -170 237 -383 295 -565 10 -30 20 -59 24 -65 3 -5 7 -14 8 -20
22 -93 45 -197 49 -225 3 -19 8 -38 10 -41 17 -28 25 -403 11 -509 -15 -107
-21 -151 -32 -200 -3 -14 -7 -34 -9 -45 -33 -170 -141 -445 -242 -615 -37 -64
-129 -193 -187 -265 -74 -90 -258 -265 -337 -321 -38 -27 -72 -58 -75 -69 -7
-23 38 -159 92 -278 85 -191 201 -361 346 -509 l37 -38 48 32 c246 170 492
398 666 618 37 47 73 92 79 100 126 159 319 518 401 745 50 141 93 288 117
400 7 33 13 65 15 70 2 13 13 75 20 122 3 21 7 49 9 63 27 158 26 513 -1 735
-2 17 -6 53 -10 80 -12 101 -58 307 -102 455 -161 540 -489 1047 -912 1411
-41 35 -77 66 -80 69 -23 25 -332 240 -344 240 -3 0 -29 15 -59 34 -116 74
-380 192 -561 251 -77 25 -113 41 -109 49 15 24 419 624 455 675 21 30 38 58
38 63 0 4 -600 8 -1334 8 l-1335 0 73 -107z"/>
<path d="M6540 6716 c0 -3 21 -40 46 -83 61 -102 162 -312 213 -440 43 -109
125 -363 136 -426 4 -20 11 -39 15 -42 4 -3 60 -18 124 -35 785 -202 1369
-824 1531 -1630 1 -8 6 -35 9 -60 3 -25 9 -56 12 -70 12 -57 12 -388 -2 -490
-18 -144 -20 -156 -38 -230 -40 -169 -85 -292 -166 -455 -225 -455 -615 -814
-1095 -1008 -99 -40 -324 -105 -395 -113 -24 -3 -47 -7 -50 -9 -34 -21 -484
-26 -595 -6 -38 7 -83 14 -98 17 -25 4 -174 39 -202 48 -337 100 -635 275
-875 516 -76 75 -110 112 -185 201 -97 116 -244 383 -305 554 -18 50 -36 98
-41 107 -23 44 -68 274 -87 438 -13 118 -7 393 12 490 3 14 7 42 11 64 19 132
94 360 171 521 65 139 198 342 293 450 101 113 287 282 400 361 2 2 -7 36 -19
76 -78 263 -214 499 -409 710 l-44 48 -34 -20 c-18 -11 -39 -24 -46 -30 -6 -6
-43 -34 -82 -62 -497 -367 -884 -903 -1075 -1489 -51 -157 -104 -381 -116
-494 -3 -27 -7 -55 -9 -62 -18 -57 -27 -494 -13 -648 35 -379 155 -793 323
-1110 79 -151 91 -171 169 -290 169 -257 385 -496 626 -691 124 -101 280 -214
296 -214 3 0 27 -14 53 -32 77 -52 307 -166 451 -223 224 -89 472 -157 660
-181 25 -3 52 -7 60 -9 101 -26 653 -26 785 0 11 2 43 7 70 10 28 3 68 10 90
15 22 5 54 11 72 15 150 26 438 119 603 194 19 9 37 16 40 16 3 1 34 16 70 34
451 231 800 521 1090 906 286 380 482 829 560 1280 39 227 45 297 45 540 0
175 -10 367 -19 384 -2 3 -7 35 -10 70 -4 35 -13 90 -21 123 -7 32 -14 62 -14
66 -12 98 -103 392 -172 552 -113 262 -310 582 -474 770 -365 418 -785 713
-1270 892 -191 71 -492 145 -665 163 -36 4 -78 9 -95 11 -58 7 -315 16 -315
10z"/>
</g>
</svg>
